M48
; DRILL file {KiCad (5.1.6)-1} date 01/03/22 12:19:45
; FORMAT={-:-/ absolute / metric / decimal}
; #@! TF.CreationDate,2022-01-03T12:19:45+01:00
; #@! TF.GenerationSoftware,Kicad,Pcbnew,(5.1.6)-1
; #@! TF.FileFunction,Plated,1,4,PTH
FMAT,2
METRIC
T1C0.300
T2C0.600
T3C0.900
T4C1.000
T5C1.100
T6C1.300
T7C1.575
T8C1.702
T9C3.500
T10C4.500
%
G90
G05
T1
X82.017Y-108.168
X82.199Y-69.957
X82.614Y-79.388
X82.614Y-91.084
X83.678Y-108.168
X83.942Y-70.216
X84.2Y-85.13
X84.24Y-82.91
X85.308Y-108.163
X85.382Y-77.964
X86.23Y-82.91
X86.25Y-85.14
X86.77Y-102.42
X86.79Y-101.25
X86.862Y-77.354
X86.863Y-78.064
X87.02Y-108.168
X87.452Y-104.102
X87.85Y-102.41
X87.89Y-101.27
X88.342Y-77.954
X89.25Y-96.41
X89.713Y-98.146
X90.856Y-73.711
X90.945Y-91.021
X90.957Y-79.438
X90.995Y-76.429
X91.02Y-103.89
X91.19Y-95.12
X91.351Y-100.673
X91.84Y-96.65
X92.36Y-98.139
X93.015Y-76.403
X93.04Y-108.742
X93.823Y-108.742
X94.63Y-112.166
X94.653Y-97.866
X95.123Y-72.276
X95.199Y-70.079
X95.313Y-75.248
X95.313Y-76.391
X95.514Y-93.223
X95.974Y-69.291
X96.253Y-72.034
X96.46Y-91.805
X96.761Y-66.739
X96.774Y-68.466
X96.81Y-73.97
X96.82Y-75.11
X97.003Y-72.911
X97.193Y-71.171
X97.353Y-110.383
X97.41Y-103.09
X97.43Y-104.68
X97.523Y-76.606
X97.752Y-89.764
X97.95Y-75.1
X97.98Y-73.97
X97.98Y-66.713
X98.006Y-68.389
X98.146Y-70.472
X98.247Y-88.506
X98.268Y-109.276
X98.512Y-99.82
X98.73Y-71.679
X99.46Y-102.28
X99.504Y-66.713
X99.54Y-103.88
X99.595Y-97.384
X99.598Y-95.54
X99.67Y-77.838
X99.822Y-106.274
X99.835Y-76.238
X99.962Y-72.517
X100.127Y-70.409
X100.533Y-77.889
X100.661Y-99.226
X100.785Y-113.055
X101.079Y-66.7
X101.142Y-72.042
X101.625Y-96.901
X101.689Y-95.542
X101.977Y-92.389
X102.362Y-98.92
X102.464Y-66.675
X102.811Y-101.328
X102.832Y-92.926
X103.351Y-99.166
X103.746Y-85.954
X103.748Y-73.001
X103.797Y-95.542
X104.127Y-92.939
X104.457Y-83.388
X104.534Y-101.346
X104.55Y-74.8
X104.56Y-96.305
X104.56Y-97.7
X104.624Y-72.125
X104.927Y-78.27
X105.169Y-68.402
X105.194Y-67.323
X105.296Y-77.102
X105.372Y-71.374
X105.486Y-75.603
X105.613Y-70.218
X106.02Y-76.543
X106.502Y-75.209
X106.718Y-75.921
X107.099Y-79.566
X107.112Y-80.848
X107.277Y-77.114
X107.4Y-69.79
X107.752Y-104.125
X108.013Y-70.485
X108.242Y-73.063
X109.385Y-77.064
X109.398Y-72.898
X109.398Y-74.676
X109.398Y-76.213
X109.41Y-70.663
X110.503Y-65.761
X110.503Y-67.081
X110.515Y-70.637
X110.515Y-74.701
X110.528Y-68.364
X110.528Y-69.621
X110.541Y-72.898
X110.541Y-75.857
X110.541Y-77.089
X110.579Y-71.819
X110.579Y-73.812
X110.708Y-96.865
X110.714Y-95.113
X110.729Y-98.603
X110.739Y-93.33
X110.749Y-100.264
X111.232Y-104.125
X112.314Y-97.709
X112.339Y-95.946
X112.382Y-66.637
X112.49Y-79.67
X112.522Y-93.33
X112.522Y-100.259
X112.613Y-102.365
X112.979Y-65.954
X113.281Y-104.127
X113.83Y-79.94
X114.254Y-93.35
X114.29Y-100.239
X114.765Y-102.354
X115.748Y-77.787
X115.837Y-76.492
X115.948Y-102.344
X115.971Y-93.375
X115.971Y-94.94
X115.987Y-100.254
X115.992Y-98.643
X116.154Y-79.032
X116.18Y-68.91
X116.733Y-98.059
X117.168Y-105.875
X117.226Y-91.928
X117.257Y-94.102
X117.818Y-67.92
X117.823Y-104.229
X118.062Y-94.097
X118.275Y-91.361
X118.958Y-97.541
X119.215Y-92.045
X119.243Y-102.641
X119.532Y-103.95
X119.579Y-99.101
X119.741Y-94.219
X119.891Y-98.2
X119.964Y-90.322
X120.284Y-95.237
X120.559Y-99.888
X120.645Y-78.618
X120.665Y-77.16
X120.79Y-75.209
X121.153Y-72.527
X121.163Y-65.984
X121.534Y-82.545
X121.732Y-89.642
X121.747Y-91.806
X122.23Y-100.254
X122.443Y-94.724
X122.801Y-65.997
X122.809Y-89.637
X122.819Y-91.791
X122.829Y-72.532
X123.248Y-94.724
X123.514Y-103.064
X123.998Y-94.71
X124.226Y-100.355
X124.816Y-97.117
X125.024Y-95.057
X125.118Y-101.613
X125.225Y-80.82
X125.679Y-78.217
X125.735Y-103.154
X125.745Y-92.639
X125.887Y-94.082
X126.051Y-104.601
X126.238Y-70.383
X126.238Y-71.171
X126.797Y-103.175
X126.975Y-79.499
X127.716Y-97.102
X127.716Y-97.852
X128.816Y-76.401
X132.22Y-74.079
X133.36Y-98.551
X133.388Y-66.573
X133.401Y-67.945
X133.906Y-77.719
X134.142Y-104.445
X134.9Y-99.031
X135.786Y-104.468
X136.017Y-74.079
X136.982Y-71.158
X136.995Y-70.358
X137.444Y-104.485
X138.298Y-98.976
X142.89Y-72.807
X142.89Y-73.802
X143.866Y-72.807
X143.866Y-73.782
X144.323Y-66.441
X144.323Y-67.991
X146.248Y-82.545
X147.284Y-83.565
X148.366Y-81.956
X150.581Y-81.051
X151.298Y-93.828
X151.343Y-97.643
X151.576Y-80.961
X151.606Y-84.871
X152.456Y-92.903
X152.481Y-97.643
X153.335Y-89.306
X153.629Y-97.638
X153.751Y-91.907
X153.904Y-79.649
X154.275Y-88.148
X155.189Y-89.311
X155.476Y-80.261
X155.959Y-83.662
X156.103Y-82.085
X156.342Y-91.923
X156.931Y-87.925
X157.053Y-80.421
X157.516Y-93.02
X157.526Y-92.263
X157.668Y-87.925
X158.176Y-83.764
X158.191Y-80.427
X158.344Y-92.253
X158.344Y-93.02
X158.415Y-87.914
X159.126Y-87.899
X159.228Y-93.02
X159.243Y-92.253
X160.477Y-96.769
X161.214Y-96.769
X161.701Y-90.475
X161.742Y-88.153
X162.001Y-96.779
X162.611Y-89.301
X168.382Y-90.729
X168.389Y-87.663
X169.532Y-93.299
T3
X154.525Y-75.286
X157.025Y-75.286
X159.525Y-75.286
T4
X133.271Y-82.718
X133.271Y-85.258
X135.811Y-82.718
X135.811Y-85.258
X138.351Y-82.718
X138.351Y-85.258
X81.445Y-94.577
X81.445Y-97.117
X81.445Y-99.657
X83.985Y-94.577
X83.985Y-97.117
X83.985Y-99.657
X133.251Y-95.905
X135.791Y-95.905
X138.331Y-95.905
X109.793Y-86.063
X112.333Y-86.063
X114.873Y-86.063
X117.413Y-86.063
X133.256Y-93.243
X135.796Y-93.243
X138.336Y-93.243
X135.268Y-109.393
X137.808Y-109.393
X140.348Y-109.393
X142.888Y-109.393
X119.779Y-112.171
X122.319Y-112.171
X124.859Y-112.171
X127.399Y-112.171
X109.807Y-89.042
X112.347Y-89.042
X114.887Y-89.042
X119.793Y-109.388
X122.333Y-109.388
X124.873Y-109.388
X127.413Y-109.388
X129.953Y-109.388
X132.493Y-109.388
X130.167Y-112.161
X132.707Y-112.161
X135.247Y-112.161
X137.787Y-112.161
X140.327Y-112.161
X142.867Y-112.161
X133.256Y-87.925
X135.796Y-87.925
X138.336Y-87.925
X133.261Y-90.587
X135.801Y-90.587
X138.341Y-90.587
X142.86Y-85.57
X142.86Y-88.11
X142.86Y-90.65
X142.86Y-93.19
T5
X149.73Y-96.86
X149.73Y-99.4
X149.73Y-101.94
T6
X115.011Y-105.894
X115.011Y-112.394
X106.982Y-105.914
X106.982Y-112.414
X110.985Y-105.906
X110.985Y-112.406
T7
X90.88Y-71.17
T8
X88.34Y-68.63
X88.34Y-73.71
X93.42Y-68.63
X93.42Y-73.71
T9
X173.868Y-68.722
X166.365Y-68.737
X150.51Y-68.743
X158.02Y-68.75
X173.909Y-110.058
X150.703Y-110.058
X158.19Y-110.04
X166.4Y-110.043
T10
X177.62Y-86.09
X177.62Y-93.29
T2
X135.955Y-67.91G85X135.955Y-66.71
G05
X141.605Y-67.91G85X141.605Y-66.71
G05
X125.195Y-67.96G85X125.195Y-66.76
G05
X130.845Y-67.96G85X130.845Y-66.76
G05
T0
M30
